<?xml version="1.0" encoding="iso-8859-1"?>
<!-- Generator: Adobe Illustrator 19.0.0, SVG Export Plug-In . SVG Version: 6.00 Build 0)  -->
<svg version="1.1" id="Capa_1" xmlns="http://www.w3.org/2000/svg" xmlns:xlink="http://www.w3.org/1999/xlink" x="0px" y="0px"
	 viewBox="0 0 512.003 512.003" style="enable-background:new 0 0 512.003 512.003;" xml:space="preserve">
<g>
	<g>
		<g>
			<path d="M182.398,364c-3.936,3.897-9.395,6.132-14.976,6.132c-5.58,0-11.039-2.235-14.976-6.132
				c-3.924-3.885-10.257-3.854-14.142,0.071c-3.886,3.925-3.854,10.256,0.071,14.142c7.764,7.687,18.079,11.919,29.046,11.919
				c10.967,0,21.282-4.233,29.046-11.919c3.925-3.885,3.957-10.217,0.071-14.142C192.654,360.146,186.323,360.114,182.398,364z"/>
			<path d="M224.135,277.694h-31.308c-5.522,0-10,4.477-10,10s4.478,10,10,10h31.308c5.523,0,10-4.477,10-10
				S229.659,277.694,224.135,277.694z"/>
			<path d="M224.135,237.694h-62.693c-5.522,0-10,4.477-10,10c0,5.523,4.478,10,10,10h62.693c5.523,0,10-4.477,10-10
				C234.135,242.171,229.659,237.694,224.135,237.694z"/>
			<path d="M466.002,110c0-60.654-49.346-110-110-110c-35.129,0-66.463,16.554-86.616,42.269
				c-18.416-6.813-37.737-10.267-57.552-10.267c-44.104,0-85.688,17.121-117.092,48.21c-31.431,31.115-48.74,72.332-48.74,116.058
				v114.999c0,63.339,39.771,117.647,95.874,139.711c3.591,34.243,32.626,61.023,67.804,61.023h61.371
				c37.596,0,68.182-30.586,68.182-68.183v-78.648c5.364-13.777,8.732-28.527,9.758-43.903h18.678
				c21.138,0,38.334-17.068,38.334-38.048v-7.479c0-17.546-12.031-32.349-28.334-36.727v-21.163
				C427.982,207.762,466.002,163.24,466.002,110z M271.05,492.003H209.68c-21.752,0-40.174-14.492-46.142-34.326
				c10.974,2.51,22.399,3.837,34.13,3.837c49.696,0,93.886-23.802,121.564-60.5v42.806h0.001
				C319.232,470.388,297.618,492.003,271.05,492.003z M386.001,275.742v7.479c0,9.952-8.225,18.048-18.334,18.048h-28.334
				c-5.522,0-10,4.477-10,10c0,16.689-3.193,32.652-9.001,47.329c-0.269,0.524-0.497,1.073-0.67,1.646
				c-19.606,47.615-66.898,81.27-121.995,81.27c-14.729,0-28.9-2.405-42.135-6.839c-0.466-0.206-0.951-0.371-1.45-0.505
				c-51.244-17.835-88.081-66.188-88.081-122.9v-53.575h33.946v76.015c0,5.523,4.478,10,10,10h35.463c5.522,0,10-4.477,10-10
				s-4.478-10-10-10h-25.463v-76.015c0-5.523-4.478-10-10-10H66.001V196.27c0-79.55,65.42-144.268,145.832-144.268
				c15.938,0,31.509,2.539,46.437,7.552c-2.457,4.741-4.579,9.682-6.335,14.791c-12.939-4.207-26.381-6.343-40.103-6.343
				c-8.52,0-17.065,0.841-25.4,2.5c-5.416,1.078-8.934,6.343-7.855,11.76c1.079,5.416,6.344,8.932,11.76,7.855
				c7.052-1.404,14.284-2.115,21.496-2.115c12.115,0,23.974,1.962,35.358,5.835c-0.78,5.277-1.19,10.673-1.19,16.163
				c0,60.654,49.346,110,110,110c0.557,0,1.111-0.013,1.666-0.021v17.715h0h-18.334c-5.522,0-10,4.477-10,10c0,5.523,4.478,10,10,10
				h28.334C377.776,257.694,386.001,265.79,386.001,275.742z M356.002,200c-49.626,0-90-40.374-90-90s40.374-90,90-90
				c49.626,0,90,40.374,90,90S405.628,200,356.002,200z"/>
			<path d="M391.356,125.355C381.912,134.799,369.357,140,356.002,140c-13.356,0-25.911-5.201-35.355-14.645
				c-3.906-3.905-10.236-3.905-14.142,0c-3.905,3.905-3.905,10.237,0,14.142c13.222,13.221,30.8,20.503,49.497,20.503
				c18.697,0,36.276-7.281,49.497-20.503c3.905-3.905,3.905-10.237,0-14.142C401.593,121.45,395.263,121.45,391.356,125.355z"/>
			<path d="M160.021,99.761c1.451,0,2.925-0.317,4.32-0.987l0.171-0.082c4.992-2.363,7.123-8.325,4.76-13.317
				c-2.362-4.992-8.325-7.123-13.316-4.76l-0.268,0.128c-4.98,2.39-7.078,8.363-4.689,13.342
				C152.719,97.669,156.294,99.761,160.021,99.761z"/>
			<path d="M322.002,101c5.508,0,10-4.492,10-10s-4.492-10-10-10s-10,4.492-10,10S316.494,101,322.002,101z"/>
			<path d="M390.002,101c5.508,0,10-4.492,10-10s-4.492-10-10-10s-10,4.492-10,10S384.494,101,390.002,101z"/>
		</g>
	</g>
</g>
<g>
</g>
<g>
</g>
<g>
</g>
<g>
</g>
<g>
</g>
<g>
</g>
<g>
</g>
<g>
</g>
<g>
</g>
<g>
</g>
<g>
</g>
<g>
</g>
<g>
</g>
<g>
</g>
<g>
</g>
</svg>
