<?xml version="1.0" encoding="iso-8859-1"?>
<!-- Generator: Adobe Illustrator 19.0.0, SVG Export Plug-In . SVG Version: 6.00 Build 0)  -->
<svg version="1.1" id="Capa_1" xmlns="http://www.w3.org/2000/svg" xmlns:xlink="http://www.w3.org/1999/xlink" x="0px" y="0px"
	 viewBox="0 0 512.002 512.002" style="enable-background:new 0 0 512.002 512.002;" xml:space="preserve">
<g>
	<g>
		<g>
			<path d="M167.422,361.106c-10.967,0-21.282,4.233-29.046,11.919c-3.925,3.886-3.957,10.217-0.071,14.142
				c3.885,3.925,10.217,3.957,14.142,0.071c3.936-3.897,9.395-6.132,14.976-6.132s11.039,2.235,14.976,6.132
				c1.949,1.93,4.493,2.893,7.035,2.893c2.576,0,5.151-0.989,7.107-2.965c3.886-3.925,3.854-10.256-0.071-14.142
				C188.704,365.34,178.389,361.106,167.422,361.106z"/>
			<path d="M224.136,277.693h-31.309c-5.523,0-10,4.478-10,10c0,5.522,4.477,10,10,10h31.309c5.523,0,10-4.478,10-10
				C234.136,282.171,229.659,277.693,224.136,277.693z"/>
			<path d="M224.136,237.693h-62.693c-5.523,0-10,4.478-10,10c0,5.523,4.477,10,10,10h62.693c5.523,0,10-4.477,10-10
				C234.136,242.171,229.659,237.693,224.136,237.693z"/>
			<path d="M466.001,110c0-60.654-49.346-110-110-110c-35.129,0-66.463,16.554-86.616,42.269
				c-18.416-6.813-37.737-10.267-57.551-10.267c-44.104,0-85.689,17.121-117.092,48.21c-31.431,31.115-48.741,72.332-48.741,116.058
				v115c0,39.995,15.832,77.694,44.579,106.153c14.913,14.764,32.34,26.072,51.293,33.544c3.584,34.249,32.624,61.035,67.805,61.035
				h61.371c37.596,0,68.183-30.587,68.183-68.183v-78.647c5.364-13.777,8.733-28.527,9.757-43.903h18.678
				c21.137,0,38.333-17.068,38.333-38.049v-7.479c0-17.547-12.031-32.35-28.333-36.728v-21.162
				C427.981,207.761,466.001,163.239,466.001,110z M319.232,443.819c0,26.568-21.615,48.183-48.183,48.183h-61.371
				c-21.753,0-40.176-14.494-46.142-34.329c11.074,2.531,22.506,3.84,34.131,3.84c49.697,0,93.886-23.802,121.565-60.5V443.819z
				 M386.001,275.742v7.479c0,9.952-8.224,18.049-18.333,18.049h-28.334c-5.523,0-10,4.478-10,10c0,16.688-3.193,32.649-9,47.326
				c-0.269,0.525-0.498,1.074-0.671,1.649c-19.606,47.614-66.898,81.268-121.996,81.268c-14.729,0-28.9-2.405-42.134-6.839
				c-0.466-0.206-0.952-0.372-1.453-0.505c-51.244-17.836-88.079-66.189-88.079-122.899v-53.576h33.947v76.015
				c0,5.522,4.477,10,10,10h35.463c5.523,0,10-4.478,10-10c0-5.523-4.477-10-10-10h-25.463v-76.015c0-5.522-4.477-10-10-10H66.001
				V196.27c0-79.55,65.42-144.268,145.833-144.268c15.936,0,31.508,2.539,46.436,7.551c-2.457,4.741-4.579,9.682-6.335,14.792
				c-12.938-4.206-26.38-6.343-40.102-6.343c-8.523,0-17.07,0.841-25.401,2.5c-5.416,1.079-8.933,6.344-7.854,11.761
				c1.079,5.416,6.339,8.929,11.76,7.854c7.048-1.403,14.28-2.115,21.495-2.115c12.115,0,23.973,1.962,35.357,5.836
				C246.409,99.114,246,104.51,246,110c0,60.654,49.346,110,110,110c0.557,0,1.112-0.013,1.667-0.021v17.714h-18.333
				c-5.523,0-10,4.478-10,10c0,5.523,4.477,10,10,10h28.334C377.777,257.693,386.001,265.79,386.001,275.742z M356.001,200
				c-49.626,0-90-40.374-90-90s40.374-90,90-90c49.626,0,90,40.374,90,90S405.627,200,356.001,200z"/>
			<path d="M356.001,122.425c-18.698,0-36.276,7.281-49.497,20.502c-3.905,3.905-3.905,10.237,0,14.143
				c3.906,3.905,10.237,3.905,14.142,0c9.444-9.443,22-14.645,35.355-14.645c13.355,0,25.911,5.201,35.355,14.645
				c1.953,1.952,4.512,2.929,7.071,2.929c2.559,0,5.118-0.977,7.071-2.929c3.905-3.905,3.905-10.237,0-14.143
				C392.277,129.706,374.699,122.425,356.001,122.425z"/>
			<path d="M160.021,99.761c1.434,0,2.892-0.31,4.274-0.965l0.265-0.127c4.979-2.391,7.078-8.364,4.688-13.343
				c-2.391-4.98-8.364-7.074-13.342-4.688c-0.005,0.003-0.168,0.081-0.173,0.084c-4.991,2.364-7.121,8.327-4.756,13.318
				C152.686,97.648,156.277,99.761,160.021,99.761z"/>
			<path d="M322.001,101c5.508,0,10.001-4.492,10.001-10s-4.493-10-10.001-10s-10,4.492-10,10S316.493,101,322.001,101z"/>
			<path d="M390.002,101c5.507,0,10-4.492,10-10s-4.493-10-10-10c-5.509,0-10.001,4.492-10.001,10S384.493,101,390.002,101z"/>
		</g>
	</g>
</g>
<g>
</g>
<g>
</g>
<g>
</g>
<g>
</g>
<g>
</g>
<g>
</g>
<g>
</g>
<g>
</g>
<g>
</g>
<g>
</g>
<g>
</g>
<g>
</g>
<g>
</g>
<g>
</g>
<g>
</g>
</svg>
