<?xml version="1.0" encoding="iso-8859-1"?>
<!-- Generator: Adobe Illustrator 19.0.0, SVG Export Plug-In . SVG Version: 6.00 Build 0)  -->
<svg version="1.1" id="Capa_1" xmlns="http://www.w3.org/2000/svg" xmlns:xlink="http://www.w3.org/1999/xlink" x="0px" y="0px"
	 viewBox="0 0 512.001 512.001" style="enable-background:new 0 0 512.001 512.001;" xml:space="preserve">
<g>
	<g>
		<path d="M405.486,127.67c1.461-0.845,3.722-1.944,5.509-2.814c13.982-6.803,40.005-19.464,40.005-58.146
			c0-19.831-8.363-37.479-23.548-49.693C413.809,6.043,395.577,0,376.113,0c-28.568,0-67.862,18.128-69.794,52.213
			c-24.026-13.072-51.253-20.211-79.486-20.211c-44.105,0-85.689,17.121-117.092,48.209
			c-31.431,31.115-48.741,72.332-48.741,116.058v115c0,39.996,15.832,77.695,44.579,106.153
			c14.913,14.763,32.34,26.072,51.293,33.544c3.584,34.249,32.624,61.035,67.806,61.035h61.371
			c37.595,0,68.182-30.586,68.182-68.182v-78.645c5.365-13.778,8.733-28.528,9.758-43.905h18.677
			c21.137,0,38.334-17.069,38.334-38.049v-7.479c0-17.546-12.032-32.349-28.334-36.727v-16.229
			c9.433-5.658,15.603-15.808,15.603-27.628c0-12.724-7.661-24.036-18.523-29.493c-0.833-4.325-1.839-8.63-3.029-12.891
			C397.012,148.71,404.374,139.239,405.486,127.67z M286.048,492.002h-61.371c-21.753,0-40.177-14.494-46.143-34.33
			c11.074,2.532,22.506,3.84,34.131,3.84c49.696,0,93.885-23.801,121.564-60.499v42.807h0.001
			C334.23,470.387,312.616,492.002,286.048,492.002z M401.001,275.742v7.479c0,9.952-8.225,18.049-18.334,18.049h-28.333
			c-5.523,0-10,4.477-10,10c0,16.683-3.191,32.642-8.996,47.314c-0.272,0.531-0.503,1.087-0.678,1.667
			c-19.608,47.611-66.898,81.262-121.993,81.262c-14.731,0-28.904-2.406-42.14-6.84c-0.462-0.204-0.942-0.368-1.437-0.501
			c-51.249-17.832-88.09-66.188-88.09-122.902v-53.576h33.946v76.015c0,5.523,4.477,10,10,10h35.464c5.523,0,10-4.477,10-10
			s-4.477-10-10-10h-25.464v-76.015c0-5.523-4.477-10-10-10H81V196.27c0-79.549,65.42-144.268,145.833-144.268
			c47.405,0,91.611,22.84,119.097,61.303c-0.588,3.478-0.918,7.311-0.918,11.566c0,13.638,8.725,24.881,21.063,28.672
			c0.977,3.09,1.846,6.211,2.608,9.352c-14.85,3.101-26.046,16.389-26.046,32.264c0,17.071,13.266,31.092,30.028,32.322v10.213
			h-18.333c-5.523,0-10,4.477-10,10s4.477,10,10,10h28.333C392.775,257.693,401.001,265.79,401.001,275.742z M345.387,81.649
			c6.422-2.984,10.885-8.145,14.457-12.295c5.535-6.432,8.738-9.788,15.479-9.788c4.78,0,11.893,2.324,11.893,8.727
			c0,4.483-1.334,5.704-10.984,10.049c-6.495,2.924-14.719,6.638-21.098,14.14C352.028,88.717,348.78,85.1,345.387,81.649z
			 M388.27,195.158c0,6.964-5.803,12.42-13.211,12.42c-6.849,0-12.421-5.571-12.421-12.42c0-7.14,5.69-12.948,12.685-12.948
			C382.22,182.21,388.27,188.26,388.27,195.158z M385.632,124.607c0,5.781-4.528,10.31-10.31,10.31
			c-5.975,0-10.311-4.225-10.311-10.046c0-4.185,0.376-7.637,1.074-10.536c0.147-0.439,0.271-0.886,0.355-1.341
			c2.809-9.572,9.52-12.596,18.001-16.416c9.61-4.328,22.772-10.254,22.772-28.285c0-16.377-13.711-28.727-31.893-28.727
			c-16.23,0-24.559,9.677-30.639,16.743c-4.863,5.652-7.029,7.787-10.509,7.787c-5.452,0-7.935-4.797-7.935-9.255
			C326.238,33.254,355.288,20,376.113,20c27.275,0,54.887,16.044,54.887,46.71c0,26.171-15.944,33.928-28.755,40.161
			C394.459,110.66,385.632,114.953,385.632,124.607z"/>
	</g>
</g>
<g>
	<g>
		<path d="M204.431,361.106H160.41c-5.523,0-10,4.477-10,10s4.477,10,10,10h44.021c5.523,0,10-4.477,10-10
			C214.431,365.583,209.954,361.106,204.431,361.106z"/>
	</g>
</g>
<g>
	<g>
		<path d="M239.135,277.693h-31.309c-5.523,0-10,4.477-10,10s4.477,10,10,10h31.309c5.523,0,10-4.477,10-10
			S244.658,277.693,239.135,277.693z"/>
	</g>
</g>
<g>
	<g>
		<path d="M239.135,237.693h-62.693c-5.523,0-10,4.477-10,10s4.477,10,10,10h62.693c5.523,0,10-4.477,10-10
			S244.658,237.693,239.135,237.693z"/>
	</g>
</g>
<g>
	<g>
		<path d="M184.315,85.47c-2.311-5.017-8.25-7.211-13.266-4.9l-0.318,0.15c-4.991,2.364-7.121,8.327-4.756,13.318
			c1.709,3.609,5.3,5.722,9.044,5.722c1.434,0,2.891-0.31,4.273-0.965C184.309,96.485,186.626,90.487,184.315,85.47z"/>
	</g>
</g>
<g>
	<g>
		<path d="M277.444,78.255c-16.104-6.804-33.132-10.254-50.61-10.254c-8.523,0-17.068,0.841-25.4,2.499
			c-5.416,1.078-8.934,6.343-7.855,11.76c1.079,5.416,6.343,8.932,11.76,7.855C212.387,88.712,219.621,88,226.835,88
			c14.79,0,29.199,2.919,42.826,8.677c1.271,0.537,2.59,0.791,3.888,0.791c3.898,0,7.603-2.294,9.216-6.11
			C284.911,86.271,282.53,80.405,277.444,78.255z"/>
	</g>
</g>
<g>
</g>
<g>
</g>
<g>
</g>
<g>
</g>
<g>
</g>
<g>
</g>
<g>
</g>
<g>
</g>
<g>
</g>
<g>
</g>
<g>
</g>
<g>
</g>
<g>
</g>
<g>
</g>
<g>
</g>
</svg>
