<?xml version="1.0" encoding="iso-8859-1"?>
<!-- Generator: Adobe Illustrator 19.0.0, SVG Export Plug-In . SVG Version: 6.00 Build 0)  -->
<svg version="1.1" id="Capa_1" xmlns="http://www.w3.org/2000/svg" xmlns:xlink="http://www.w3.org/1999/xlink" x="0px" y="0px"
	 viewBox="0 0 512.001 512.001" style="enable-background:new 0 0 512.001 512.001;" xml:space="preserve">
<g>
	<g>
		<path d="M196.537,364.07c-3.883-3.924-10.215-3.956-14.14-0.071c-3.936,3.897-9.395,6.132-14.976,6.132s-11.04-2.235-14.975-6.131
			c-3.924-3.886-10.256-3.854-14.142,0.07s-3.855,10.256,0.07,14.142c7.763,7.687,18.078,11.919,29.046,11.919
			c10.967,0,21.282-4.233,29.046-11.919C200.391,374.327,200.423,367.995,196.537,364.07z"/>
	</g>
</g>
<g>
	<g>
		<path d="M224.135,277.693h-31.309c-5.523,0-10,4.477-10,10s4.477,10,10,10h31.309c5.523,0,10-4.477,10-10
			S229.658,277.693,224.135,277.693z"/>
	</g>
</g>
<g>
	<g>
		<path d="M224.135,237.693h-62.693c-5.523,0-10,4.477-10,10s4.477,10,10,10h62.693c5.523,0,10-4.477,10-10
			S229.658,237.693,224.135,237.693z"/>
	</g>
</g>
<g>
	<g>
		<path d="M169.292,85.42c-2.336-5.003-8.289-7.166-13.292-4.828l-0.315,0.15c-4.979,2.39-7.078,8.363-4.688,13.342
			c1.722,3.585,5.298,5.676,9.023,5.676c1.451,0,2.925-0.317,4.32-0.987c0.004-0.002,0.115-0.055,0.128-0.062
			C169.469,96.373,171.629,90.423,169.292,85.42z"/>
	</g>
</g>
<g>
	<g>
		<path d="M456.001,96h-18.68c-4.168-12.188-15.737-20.977-29.32-20.977S382.849,83.811,378.681,96h-8.68V78.977
			c0-5.523-4.477-10-10-10c-6.053,0-10.977-4.924-10.977-10.977s4.924-10.977,10.977-10.977c5.523,0,10-4.477,10-10V10
			c0-5.523-4.477-10-10-10h-95.999c-5.523,0-10,4.477-10,10v27.425c-13.725-3.602-27.855-5.424-42.167-5.424
			c-44.105,0-85.689,17.121-117.093,48.21c-31.431,31.115-48.741,72.332-48.741,116.058v114.999
			c0,39.996,15.832,77.695,44.579,106.153c14.913,14.763,32.34,26.072,51.293,33.544c3.584,34.249,32.624,61.036,67.806,61.036
			h61.371c37.596,0,68.183-30.586,68.183-68.182v-78.647c5.364-13.778,8.732-28.527,9.757-43.903h18.678
			c21.137,0,38.333-17.069,38.333-38.049v-7.478c0-17.546-12.031-32.349-28.333-36.727V212h78.333c5.523,0,10-4.477,10-10v-96
			C466.001,100.477,461.523,96,456.001,96z M274.002,20h75.999v8.68c-12.189,4.169-20.977,15.737-20.977,29.32
			s8.788,25.152,20.977,29.32V96h-17.023c-5.523,0-10,4.477-10,10c0,6.053-4.924,10.976-10.977,10.976
			c-6.053,0-10.977-4.924-10.977-10.976c0-5.523-4.477-10-10-10h-17.022V20z M274.001,116h8.68
			c4.168,12.188,15.737,20.977,29.32,20.977s25.152-8.788,29.32-20.977h8.68v17.023c0,5.523,4.477,10,10,10
			c6.053,0,10.977,4.924,10.977,10.977c-0.001,6.052-4.925,10.976-10.977,10.976c-5.523,0-10,4.477-10,10v17.023h-76V116z
			 M271.049,492.001h-61.371c-21.753,0-40.177-14.495-46.143-34.33c11.074,2.532,22.506,3.84,34.131,3.84
			c49.697,0,93.886-23.802,121.565-60.501v42.809h0.001C319.232,470.387,297.617,492.001,271.049,492.001z M386.001,275.741v7.478
			c0,9.952-8.224,18.049-18.333,18.049h-28.334c-5.523,0-10,4.477-10,10c0,16.687-3.193,32.648-9,47.325
			c-0.269,0.526-0.498,1.076-0.672,1.651c-19.606,47.614-66.899,81.268-121.996,81.268c-14.731,0-28.904-2.406-42.14-6.84
			c-0.462-0.204-0.942-0.368-1.437-0.5c-51.249-17.832-88.09-66.188-88.09-122.903v-53.576h33.947v76.015c0,5.523,4.477,10,10,10
			h35.463c5.523,0,10-4.477,10-10s-4.477-10-10-10h-25.463v-76.015c0-5.523-4.477-10-10-10H66v-41.424
			c0-79.55,65.421-144.268,145.834-144.268c14.365,0,28.517,2.088,42.167,6.204v16.827c-13.57-4.665-27.714-7.031-42.167-7.031
			c-8.524,0-17.07,0.841-25.402,2.5c-5.417,1.079-8.933,6.344-7.855,11.76c1.079,5.417,6.343,8.931,11.76,7.855
			c7.049-1.404,14.282-2.115,21.497-2.115c14.552,0,28.733,2.833,42.167,8.409L254,201.999c0,5.523,4.477,10,10,10h93.667v25.694
			h-18.334c-5.523,0-10,4.477-10,10c0,5.523,4.477,10,10,10h28.334C377.777,257.693,386.001,265.789,386.001,275.741z M446.001,192
			h-76v-8.68c12.188-4.168,20.977-15.737,20.977-29.32s-8.788-25.152-20.977-29.321V116h17.023c5.523,0,10-4.477,10-10
			c0-6.053,4.924-10.977,10.977-10.977s10.977,4.924,10.977,10.977c0,5.523,4.477,10,10,10h17.023V192z"/>
	</g>
</g>
<g>
</g>
<g>
</g>
<g>
</g>
<g>
</g>
<g>
</g>
<g>
</g>
<g>
</g>
<g>
</g>
<g>
</g>
<g>
</g>
<g>
</g>
<g>
</g>
<g>
</g>
<g>
</g>
<g>
</g>
</svg>
