<?xml version="1.0" encoding="iso-8859-1"?>
<!-- Generator: Adobe Illustrator 19.0.0, SVG Export Plug-In . SVG Version: 6.00 Build 0)  -->
<svg version="1.1" id="Capa_1" xmlns="http://www.w3.org/2000/svg" xmlns:xlink="http://www.w3.org/1999/xlink" x="0px" y="0px"
	 viewBox="0 0 512.003 512.003" style="enable-background:new 0 0 512.003 512.003;" xml:space="preserve">
<g>
	<g>
		<path d="M192.81,364.071c-3.882-3.925-10.215-3.957-14.14-0.072c-3.938,3.897-9.395,6.133-14.976,6.133
			c-5.58,0-11.038-2.235-14.976-6.133c-3.926-3.885-10.257-3.853-14.142,0.072c-3.886,3.925-3.854,10.257,0.071,14.142
			c7.765,7.686,18.08,11.919,29.046,11.919s21.281-4.233,29.046-11.919C196.664,374.328,196.696,367.996,192.81,364.071z"/>
	</g>
</g>
<g>
	<g>
		<path d="M220.409,277.693H189.1c-5.522,0-10,4.477-10,10s4.478,10,10,10h31.309c5.522,0,10-4.477,10-10
			S225.931,277.693,220.409,277.693z"/>
	</g>
</g>
<g>
	<g>
		<path d="M220.409,237.693h-62.693c-5.523,0-10,4.477-10,10s4.477,10,10,10h62.693c5.522,0,10-4.477,10-10
			S225.931,237.693,220.409,237.693z"/>
	</g>
</g>
<g>
	<g>
		<path d="M165.544,85.375c-2.362-4.992-8.325-7.123-13.316-4.76l-0.22,0.104c-4.992,2.363-7.123,8.325-4.76,13.317
			c1.709,3.61,5.3,5.724,9.045,5.724c1.434,0,2.89-0.31,4.271-0.964l0.22-0.104C165.776,96.329,167.907,90.367,165.544,85.375z"/>
	</g>
</g>
<g>
	<g>
		<path d="M253.024,76.006c-14.424-5.312-29.535-8.005-44.916-8.005c-8.522,0-17.068,0.841-25.401,2.499
			c-5.416,1.078-8.934,6.343-7.855,11.76c1.079,5.417,6.344,8.934,11.76,7.855c7.05-1.403,14.283-2.115,21.497-2.115
			c13.015,0,25.801,2.278,38.004,6.772c1.141,0.42,2.307,0.619,3.455,0.619c4.07,0,7.896-2.504,9.385-6.547
			C260.86,83.663,258.207,77.915,253.024,76.006z"/>
	</g>
</g>
<g>
	<g>
		<path d="M405.222,122.807c10.819-13.357,16.777-30.196,16.777-47.414C422,33.821,388.179,0,346.608,0
			c-31.487,0-58.515,19.411-69.78,46.889c-21.503-9.756-45.025-14.887-68.721-14.887c-44.105,0-85.688,17.121-117.092,48.21
			c-31.432,31.115-48.741,72.331-48.741,116.058v115c0,63.338,39.772,117.646,95.874,139.71
			c3.59,34.243,32.627,61.023,67.805,61.023h61.371c37.596,0,68.182-30.586,68.182-68.182v-78.647
			c5.364-13.778,8.733-28.527,9.758-43.903h18.678c21.137,0,38.333-17.069,38.333-38.049v-7.478
			c0-17.546-12.031-32.349-28.333-36.727v-21.008c7.407-3.43,12.56-10.93,12.56-19.616V168.81c0-4.097-2.466-7.613-5.992-9.159
			c1.373-9.45,5.528-14.28,14.692-24.928C398.137,131.314,401.462,127.45,405.222,122.807z M267.323,492.002h-61.371
			c-21.753,0-40.176-14.493-46.143-34.327c10.974,2.51,22.398,3.837,34.131,3.837c49.696,0,93.886-23.802,121.564-60.5v42.808h0.001
			C315.505,470.388,293.891,492.002,267.323,492.002z M382.274,275.742v7.478c0,9.952-8.224,18.049-18.333,18.049h-28.334
			c-5.522,0-10,4.477-10,10c0,16.687-3.193,32.649-9,47.326c-0.269,0.526-0.497,1.075-0.671,1.65
			c-19.606,47.614-66.898,81.268-121.995,81.268c-14.732,0-28.906-2.406-42.143-6.841c-0.46-0.203-0.938-0.366-1.432-0.499
			c-51.251-17.831-88.093-66.188-88.093-122.903v-53.576h33.948v76.014c0,5.523,4.478,10,10,10h35.463c5.522,0,10-4.477,10-10
			s-4.478-10-10-10h-25.463v-76.014c0-5.523-4.478-10-10-10H62.274V196.27c0-79.549,65.42-144.267,145.833-144.267
			c22.024,0,43.875,5.037,63.639,14.589c-0.337,2.889-0.53,5.822-0.53,8.801c0,17.219,5.958,34.057,16.777,47.414
			c3.761,4.643,7.086,8.507,10.021,11.916c9.164,10.648,13.319,15.478,14.692,24.928c-3.525,1.545-5.992,5.062-5.992,9.159v29.583
			c0,11.915,9.693,21.608,21.608,21.608h25.619v17.694h-18.334c-5.522,0-10,4.477-10,10c0,5.523,4.478,10,10,10h28.334
			C374.05,257.693,382.274,265.79,382.274,275.742z M326.714,198.391v-19.582h39.787v19.582c0,0.857-0.752,1.608-1.608,1.608
			h-36.571C327.466,199.999,326.714,199.248,326.714,198.391z M380.043,121.675c-10.596,12.312-17.638,20.492-19.555,37.133h-27.763
			c-1.917-16.641-8.959-24.822-19.555-37.133c-2.843-3.303-6.064-7.046-9.638-11.457c-8.059-9.95-12.318-21.992-12.318-34.826
			c0-30.543,24.849-55.392,55.393-55.392c30.543,0,55.392,24.849,55.392,55.392c0.001,12.834-4.259,24.877-12.318,34.826
			C386.108,114.629,382.886,118.373,380.043,121.675z"/>
	</g>
</g>
<g>
	<g>
		<path d="M454.946,109.443l-10.163-4.209c-5.098-2.114-10.95,0.31-13.065,5.412c-2.113,5.103,0.311,10.952,5.413,13.065
			l10.163,4.209c1.251,0.519,2.547,0.764,3.822,0.764c3.924,0,7.647-2.325,9.242-6.176
			C462.472,117.406,460.048,111.557,454.946,109.443z"/>
	</g>
</g>
<g>
	<g>
		<path d="M459.73,65.392h-11c-5.522,0-10,4.477-10,10c0,5.523,4.478,10,10,10h11c5.522,0,10-4.477,10-10
			C469.73,69.869,465.252,65.392,459.73,65.392z"/>
	</g>
</g>
<g>
	<g>
		<path d="M460.358,28.275c-2.114-5.102-7.961-7.527-13.065-5.413l-10.163,4.209c-5.103,2.113-7.526,7.962-5.413,13.065
			c1.595,3.853,5.318,6.177,9.243,6.177c1.274,0,2.571-0.246,3.822-0.764l10.163-4.209
			C460.048,39.227,462.472,33.378,460.358,28.275z"/>
	</g>
</g>
<g>
</g>
<g>
</g>
<g>
</g>
<g>
</g>
<g>
</g>
<g>
</g>
<g>
</g>
<g>
</g>
<g>
</g>
<g>
</g>
<g>
</g>
<g>
</g>
<g>
</g>
<g>
</g>
<g>
</g>
</svg>
