<?xml version="1.0" encoding="iso-8859-1"?>
<!-- Generator: Adobe Illustrator 19.0.0, SVG Export Plug-In . SVG Version: 6.00 Build 0)  -->
<svg version="1.1" id="Layer_1" xmlns="http://www.w3.org/2000/svg" xmlns:xlink="http://www.w3.org/1999/xlink" x="0px" y="0px"
	 viewBox="0 0 342.924 342.924" style="enable-background:new 0 0 342.924 342.924;" xml:space="preserve">
<g>
	<g>
		<path d="M256.93,96.444V9c0-4.971-4.029-9-9-9s-9,4.029-9,9v87.219h-9.002V84.427c0-2.434-0.986-4.764-2.732-6.459
			c-1.746-1.695-4.112-2.595-6.538-2.537l-113.462,3.414c-15.826,0.476-28.222,13.251-28.222,29.084s12.396,28.608,28.222,29.084
			l32.923,0.99l-10.348,186.921h-17.513c-4.971,0-9,4.029-9,9s4.029,9,9,9h98.693c4.971,0,9-4.029,9-9s-4.029-9-9-9h-17.512
			l-10.276-185.625l37.494,1.128c0.09,0.002,0.181,0.004,0.271,0.004c2.336,0,4.585-0.909,6.267-2.541
			c1.747-1.695,2.732-4.025,2.732-6.459v-17.212h9.002v87.218c0,4.971,4.029,9,9,9c4.971,0,9-4.029,9-9v-87.443
			c4.019-0.903,7.022-4.485,7.022-8.775S260.947,97.347,256.93,96.444z M147.799,324.924l10.318-186.379l6.989,0.21l10.306,186.169
			H147.799z M211.927,122.156l-104.191-3.135c-6.035-0.182-10.763-5.054-10.763-11.092c0-6.039,4.728-10.911,10.763-11.092
			l104.191-3.135V122.156z"/>
	</g>
</g>
<g>
</g>
<g>
</g>
<g>
</g>
<g>
</g>
<g>
</g>
<g>
</g>
<g>
</g>
<g>
</g>
<g>
</g>
<g>
</g>
<g>
</g>
<g>
</g>
<g>
</g>
<g>
</g>
<g>
</g>
</svg>
