<?xml version="1.0" encoding="iso-8859-1"?>
<!-- Generator: Adobe Illustrator 19.1.0, SVG Export Plug-In . SVG Version: 6.00 Build 0)  -->
<svg version="1.1" id="Capa_1" xmlns="http://www.w3.org/2000/svg" xmlns:xlink="http://www.w3.org/1999/xlink" x="0px" y="0px"
	 viewBox="0 0 453.503 453.503" style="enable-background:new 0 0 453.503 453.503;" xml:space="preserve">
<g>
	<g id="Truck_2_">
		<g>
			<path d="M136.232,96.369v45.35H65.939L0,221.083v102.038h35.623c5.057,19.523,22.63,34.013,43.718,34.013
				s38.684-14.489,43.718-34.013h184.485c5.057,19.523,22.63,34.013,43.718,34.013s38.661-14.489,43.718-34.013h58.525V96.369
				H136.232z M79.34,334.458c-12.494,0-22.652-10.181-22.652-22.675s10.158-22.675,22.652-22.675s22.675,10.181,22.675,22.675
				C102.015,324.3,91.857,334.458,79.34,334.458z M136.028,300.446h-12.948c-5.057-19.523-22.63-34.013-43.718-34.013
				s-38.661,14.489-43.718,34.013h-12.97v-71.177l53.876-64.874h59.477C136.028,164.395,136.028,300.446,136.028,300.446z
				 M351.283,334.458c-12.494,0-22.675-10.181-22.675-22.675s10.158-22.675,22.675-22.675c12.494,0,22.652,10.181,22.652,22.675
				C373.958,324.3,363.777,334.458,351.283,334.458z M430.85,300.446h-35.849c-5.057-19.523-22.63-34.013-43.718-34.013
				s-38.661,14.489-43.718,34.013H158.885V119.044H430.85V300.446z M113.376,232.42v-45.35H90.701l-34.013,45.35H113.376z"/>
		</g>
	</g>
</g>
<g>
</g>
<g>
</g>
<g>
</g>
<g>
</g>
<g>
</g>
<g>
</g>
<g>
</g>
<g>
</g>
<g>
</g>
<g>
</g>
<g>
</g>
<g>
</g>
<g>
</g>
<g>
</g>
<g>
</g>
</svg>
