<?xml version="1.0" encoding="UTF-8" standalone="no"?>
<!-- Generator: Adobe Illustrator 16.0.0, SVG Export Plug-In . SVG Version: 6.00 Build 0)  -->

<svg
   xmlns:osb="http://www.openswatchbook.org/uri/2009/osb"
   xmlns:dc="http://purl.org/dc/elements/1.1/"
   xmlns:cc="http://creativecommons.org/ns#"
   xmlns:rdf="http://www.w3.org/1999/02/22-rdf-syntax-ns#"
   xmlns:svg="http://www.w3.org/2000/svg"
   xmlns="http://www.w3.org/2000/svg"
   xmlns:sodipodi="http://sodipodi.sourceforge.net/DTD/sodipodi-0.dtd"
   xmlns:inkscape="http://www.inkscape.org/namespaces/inkscape"
   version="1.1"
   id="Capa_1"
   x="0px"
   y="0px"
   width="437.94101"
   height="463.879"
   viewBox="0 0 437.94101 463.879"
   xml:space="preserve"
   sodipodi:docname="building.svg"
   inkscape:version="0.92.2 2405546, 2018-03-11"><metadata
   id="metadata47"><rdf:RDF><cc:Work
       rdf:about=""><dc:format>image/svg+xml</dc:format><dc:type
         rdf:resource="http://purl.org/dc/dcmitype/StillImage" /></cc:Work></rdf:RDF></metadata><defs
   id="defs45"><linearGradient
   id="linearGradient881"
   osb:paint="solid"><stop
     style="stop-color:#000000;stop-opacity:1;"
     offset="0"
     id="stop879" /></linearGradient>
	

		
		
		
	</defs><sodipodi:namedview
   pagecolor="#ffffff"
   bordercolor="#666666"
   borderopacity="1"
   objecttolerance="10"
   gridtolerance="10"
   guidetolerance="10"
   inkscape:pageopacity="0"
   inkscape:pageshadow="2"
   inkscape:window-width="3840"
   inkscape:window-height="2160"
   id="namedview43"
   showgrid="true"
   inkscape:zoom="0.74518876"
   inkscape:cx="268.85365"
   inkscape:cy="-177.53798"
   inkscape:window-x="0"
   inkscape:window-y="0"
   inkscape:window-maximized="0"
   inkscape:current-layer="Capa_1"><inkscape:grid
     type="xygrid"
     id="grid819"
     originx="-4.969"
     originy="8.0000022" /></sodipodi:namedview>
<path
   d="M 429.941,443.379 V 20.5 c 0,-6.903 -5.596,-12.5 -12.5,-12.5 h -96.238 c -6.904,0 -12.5,5.597 -12.5,12.5 V 175.559 H 280.398 L 155.581,89.982 c -3.828,-2.624 -8.791,-2.913 -12.895,-0.749 -4.104,2.162 -6.673,6.42 -6.673,11.059 v 64.041 L 27.569,89.981 C 23.742,87.357 18.777,87.068 14.674,89.232 10.57,91.394 8,95.652 8,100.291 v 343.088 c 0,6.902 5.597,12.5 12.5,12.5 h 396.941 c 6.904,0 12.5,-5.598 12.5,-12.5 z"
   id="path924"
   style="fill:#ffffff;fill-opacity:1;stroke:#000000;stroke-width:16;stroke-miterlimit:4;stroke-dasharray:none;stroke-opacity:1"
   inkscape:export-xdpi="96"
   inkscape:export-ydpi="96"
   inkscape:connector-curvature="0" /><path
   d="m 323.38566,234.11159 h -76.3344 c -5.74287,0 -10.39922,4.61819 -10.39922,10.31398 v 51.37519 c 0,5.69497 4.65635,10.31398 10.39922,10.31398 h 76.3344 c 5.74203,0 10.39922,-4.61901 10.39922,-10.31398 v -51.37519 c 0,-5.69579 -4.65719,-10.31398 -10.39922,-10.31398 z"
   id="path863"
   style="fill:#ffffff;fill-opacity:1;stroke:#000002;stroke-width:16;stroke-miterlimit:4;stroke-dasharray:none;stroke-opacity:1"
   inkscape:connector-curvature="0"
   inkscape:export-xdpi="96"
   inkscape:export-ydpi="96" />















<path
   d="M 175.031,234.00556 H 98.6966 c -5.742871,0 -10.399221,4.61819 -10.399221,10.31398 v 51.37519 c 0,5.69497 4.65635,10.31398 10.399221,10.31398 h 76.3344 c 5.74203,0 10.39922,-4.61901 10.39922,-10.31398 v -51.37519 c 0,-5.69579 -4.65719,-10.31398 -10.39922,-10.31398 z"
   id="path863-3"
   style="fill:#ffffff;fill-opacity:1;stroke:#000000;stroke-width:16;stroke-miterlimit:4;stroke-dasharray:none;stroke-opacity:1"
   inkscape:connector-curvature="0"
   inkscape:export-xdpi="96"
   inkscape:export-ydpi="96" /></svg>