<?xml version="1.0" encoding="UTF-8" standalone="no"?>
<!-- Created with Inkscape (http://www.inkscape.org/) -->

<svg
   xmlns:dc="http://purl.org/dc/elements/1.1/"
   xmlns:cc="http://creativecommons.org/ns#"
   xmlns:rdf="http://www.w3.org/1999/02/22-rdf-syntax-ns#"
   xmlns:svg="http://www.w3.org/2000/svg"
   xmlns="http://www.w3.org/2000/svg"
   xmlns:sodipodi="http://sodipodi.sourceforge.net/DTD/sodipodi-0.dtd"
   xmlns:inkscape="http://www.inkscape.org/namespaces/inkscape"
   width="18.10745mm"
   height="22.880011mm"
   viewBox="0 0 18.10745 22.880011"
   version="1.1"
   id="svg4366"
   inkscape:version="0.92.4 5da689c313, 2019-01-14"
   sodipodi:docname="td2.svg"
   inkscape:export-filename="/home/eko/LRZ Sync+Share/WoT/pictures/td2.png"
   inkscape:export-xdpi="939.03644"
   inkscape:export-ydpi="939.03644">
  <defs
     id="defs4360">
    <filter
       inkscape:menu-tooltip="In and out glow with a possible offset and colorizable flood"
       inkscape:menu="Shadows and Glows"
       inkscape:label="Cutout Glow"
       style="color-interpolation-filters:sRGB"
       id="filter8168">
      <feOffset
         dy="-100"
         dx="-100"
         id="feOffset8158"
         flood-color="rgb(245,121,0)" />
      <feGaussianBlur
         stdDeviation="0.01"
         result="blur"
         id="feGaussianBlur8160" />
      <feFlood
         flood-color="rgb(245,121,0)"
         flood-opacity="1"
         result="flood"
         id="feFlood8162" />
      <feComposite
         in="flood"
         in2="SourceGraphic"
         operator="destination-over"
         result="composite"
         id="feComposite8164" />
      <feBlend
         in="blur"
         in2="composite"
         mode="normal"
         id="feBlend8166" />
    </filter>
  </defs>
  <sodipodi:namedview
     id="base"
     pagecolor="#ffffff"
     bordercolor="#666666"
     borderopacity="1.0"
     inkscape:pageopacity="0.0"
     inkscape:pageshadow="2"
     inkscape:zoom="5.6568543"
     inkscape:cx="-19.678811"
     inkscape:cy="26.482641"
     inkscape:document-units="mm"
     inkscape:current-layer="g4999"
     showgrid="false"
     inkscape:window-width="3434"
     inkscape:window-height="1376"
     inkscape:window-x="0"
     inkscape:window-y="28"
     inkscape:window-maximized="0"
     fit-margin-top="-0.1"
     fit-margin-left="0"
     fit-margin-right="0"
     fit-margin-bottom="0"
     inkscape:object-nodes="false" />
  <metadata
     id="metadata4363">
    <rdf:RDF>
      <cc:Work
         rdf:about="">
        <dc:format>image/svg+xml</dc:format>
        <dc:type
           rdf:resource="http://purl.org/dc/dcmitype/StillImage" />
        <dc:title></dc:title>
      </cc:Work>
    </rdf:RDF>
  </metadata>
  <g
     inkscape:label="Layer 1"
     inkscape:groupmode="layer"
     id="layer1"
     transform="translate(-33.009375,-141.45414)">
    <g
       id="g4999"
       transform="matrix(3.2483728,0,0,3.2483728,304.31392,-538.8493)">
      <path
         inkscape:connector-curvature="0"
         id="path10823-6"
         d="m -83.224006,216.17733 v -6.5 h 3.500001 l 1.499999,1.5 v 5 z"
         style="fill:#ffffff;fill-opacity:1;stroke:#000000;stroke-width:0.26458332px;stroke-linecap:butt;stroke-linejoin:round;stroke-opacity:1" />
      <path
         inkscape:connector-curvature="0"
         id="path10825-7"
         d="m -79.714785,209.78052 0.0017,1.42217 1.241809,-0.003"
         style="fill:none;fill-opacity:1;stroke:#000000;stroke-width:0.27367547;stroke-linecap:square;stroke-linejoin:round;stroke-miterlimit:4;stroke-dasharray:none;stroke-opacity:1"
         sodipodi:nodetypes="ccc" />
      <g
         id="g4941"
         transform="translate(0,-0.11518916)">
        <text
           x="-83.401451"
           y="214.92691"
           id="obj-start"
           xml:space="preserve"
           style="font-style:normal;font-variant:normal;font-weight:normal;font-stretch:normal;font-size:3.592273px;line-height:125%;font-family:'Bitstream Vera Sans Mono';-inkscape-font-specification:'Bitstream Vera Sans Mono';letter-spacing:0px;word-spacing:0px;fill:#000000;fill-opacity:1;stroke:none;stroke-width:0.02494634"><tspan
             style="stroke-width:0.02494634"
             x="-83.401451"
             y="214.92691"
             id="tspan3093">{</tspan></text>
        <text
           x="-80.270683"
           y="214.92691"
           id="obj-end"
           xml:space="preserve"
           style="font-style:normal;font-variant:normal;font-weight:normal;font-stretch:normal;font-size:3.592273px;line-height:125%;font-family:'Bitstream Vera Sans';-inkscape-font-specification:'Bitstream Vera Sans';text-align:start;letter-spacing:0px;word-spacing:0px;writing-mode:lr-tb;text-anchor:start;fill:#000000;fill-opacity:1;stroke:none;stroke-width:0.02494634"><tspan
             x="-80.270683"
             y="214.92691"
             id="tspan3097"
             style="font-style:normal;font-variant:normal;font-weight:normal;font-stretch:normal;font-size:3.592273px;line-height:125%;font-family:'Bitstream Vera Sans';-inkscape-font-specification:'Bitstream Vera Sans';text-align:start;writing-mode:lr-tb;text-anchor:start;stroke-width:0.02494634">}</tspan></text>
        <g
           transform="matrix(0.02494634,0,0,0.02494634,-82.010012,212.5844)"
           id="g3186">
          <path
             style="fill:#0c479c"
             id="path3188"
             inkscape:connector-curvature="0"
             d="m 84.45,66.836 c -0.636,-0.337 -1.284,-0.624 -1.936,-0.879 l 0.466,-0.038 c 0,0 -4.151,-1.838 -4.514,-15.18 -0.359,-13.344 3.957,-15.62 3.957,-15.62 l -0.62,0.027 C 85.064,33.473 87.869,30.83 89.72,27.342 94.543,18.27 91.092,7.001 82.018,2.177 72.94,-2.641 61.674,0.802 56.854,9.883 54.872,13.608 54.309,17.7 54.935,21.566 L 54.723,21.24 c 0,0 1.093,4.842 -10.258,11.888 -11.349,7.05 -16.469,3.54 -16.469,3.54 l 0.326,0.48 C 27.997,36.947 27.686,36.742 27.347,36.565 18.269,31.741 7,35.188 2.178,44.266 c -4.82,9.077 -1.372,20.341 7.703,25.167 6.766,3.591 14.744,2.59 20.365,-1.914 l -0.122,0.236 c 0,0 4.132,-3.399 16.04,2.994 9.4,5.044 10.796,9.988 10.975,11.846 -0.246,6.893 3.347,13.654 9.847,17.107 9.075,4.825 20.344,1.375 25.164,-7.701 4.824,-9.075 1.378,-20.345 -7.7,-25.165 z m -20.984,2.446 c -1.504,0.532 -5.801,1.121 -14.847,-3.73 -9.797,-5.26 -11.251,-9.654 -11.464,-10.973 0.139,-1.6 0.05,-3.197 -0.223,-4.755 l 0.06,0.09 c 0,0 -0.798,-4.274 10.412,-11.235 10.033,-6.228 14.594,-4.989 15.443,-4.664 0.546,0.371 1.112,0.717 1.706,1.033 1.129,0.6 2.293,1.07 3.472,1.418 1.38,1.314 3.92,5.045 4.184,14.854 0.27,9.883 -2.634,13.694 -4.217,15.042 -1.63,0.738 -3.156,1.723 -4.526,2.92 z" />
          <g
             id="g3190">
            <path
               style="fill:#ffffff"
               id="path3192"
               inkscape:connector-curvature="0"
               d="m 62.239,8.1 c -5.415,5.923 -5.529,14.636 -0.312,19.566 -2.579,-2.483 -2.523,-7.651 0.083,-12.597 0.335,-0.443 1.306,-1.49 2.725,-1.014 0.143,0.049 0.237,0.062 0.292,0.053 0.321,0.069 0.65,0.11 0.99,0.095 2.155,-0.098 3.822,-1.921 3.725,-4.077 C 69.698,9.159 69.297,8.303 68.677,7.646 73.679,4.369 79.419,3.994 81.771,6.142 l 0.09,0.006 C 76.488,1.242 67.705,2.119 62.239,8.1 Z" />
          </g>
          <g
             id="g3194">
            <path
               style="fill:#ffffff"
               id="path3196"
               inkscape:connector-curvature="0"
               d="M 7.632,62.845 C 7.586,62.798 7.539,62.743 7.491,62.697 c 0.03,0.031 0.059,0.069 0.095,0.102 z" />
            <path
               style="fill:#ffffff"
               id="path3198"
               inkscape:connector-curvature="0"
               d="M 7.805,43.13 C 2.389,49.054 2.276,57.765 7.492,62.696 4.914,60.212 4.969,55.044 7.575,50.098 c 0.336,-0.444 1.308,-1.49 2.727,-1.014 0.141,0.049 0.236,0.061 0.292,0.054 0.321,0.069 0.651,0.11 0.99,0.095 2.156,-0.099 3.822,-1.922 3.725,-4.076 -0.045,-0.967 -0.445,-1.824 -1.063,-2.48 4.999,-3.276 10.74,-3.654 13.092,-1.505 l 0.089,0.008 C 22.054,36.271 13.269,37.147 7.805,43.13 Z" />
          </g>
          <g
             id="g3200">
            <path
               style="fill:#ffffff"
               id="path3202"
               inkscape:connector-curvature="0"
               d="m 65.256,92.504 c -0.047,-0.048 -0.094,-0.102 -0.141,-0.148 0.029,0.031 0.059,0.069 0.094,0.101 z" />
            <path
               style="fill:#ffffff"
               id="path3204"
               inkscape:connector-curvature="0"
               d="m 65.428,72.786 c -5.416,5.926 -5.529,14.639 -0.313,19.569 -2.58,-2.483 -2.523,-7.653 0.082,-12.597 0.336,-0.445 1.307,-1.49 2.727,-1.014 0.143,0.047 0.235,0.061 0.292,0.053 0.32,0.069 0.651,0.11 0.99,0.096 2.154,-0.1 3.82,-1.924 3.723,-4.08 -0.044,-0.966 -0.445,-1.822 -1.063,-2.479 5,-3.275 10.739,-3.652 13.093,-1.504 l 0.088,0.007 c -5.37,-4.907 -14.156,-4.03 -19.619,1.949 z" />
          </g>
        </g>
      </g>
      <text
         id="text8156"
         y="725.66925"
         x="491.53842"
         style="font-style:normal;font-weight:normal;font-size:40px;line-height:1.25;font-family:sans-serif;letter-spacing:0px;word-spacing:0px;fill:#000000;fill-opacity:1;stroke:none;filter:url(#filter8168)"
         xml:space="preserve"
         transform="matrix(0.04749241,0,0,0.04749241,-106.06929,177.21355)"><tspan
           style="font-style:normal;font-variant:normal;font-weight:normal;font-stretch:normal;font-family:freesans;-inkscape-font-specification:freesans;fill:#ffffff"
           y="761.05988"
           x="491.53842"
           id="tspan8154"
           sodipodi:role="line" /></text>
      <rect
         style="opacity:1;fill:#f29200;fill-opacity:1;stroke:none;stroke-width:0.05569546;stroke-linecap:butt;stroke-linejoin:round;stroke-miterlimit:4;stroke-dasharray:none;stroke-dashoffset:0;stroke-opacity:1;paint-order:markers fill stroke"
         id="rect4875"
         width="3.0058253"
         height="1.4084235"
         x="-82.98214"
         y="209.92929"
         ry="0.10863498"
         rx="0.13108526" />
      <text
         xml:space="preserve"
         style="font-style:normal;font-variant:normal;font-weight:normal;font-stretch:normal;font-size:1.82181239px;line-height:1.25;font-family:'Font Awesome 5 Free';-inkscape-font-specification:'Font Awesome 5 Free';letter-spacing:0px;word-spacing:0px;fill:#ffffff;fill-opacity:1;stroke:none;stroke-width:0.13663594"
         x="-82.468094"
         y="211.34175"
         id="text873"><tspan
           sodipodi:role="line"
           id="tspan871"
           x="-82.468094"
           y="211.34175"
           style="font-style:normal;font-variant:normal;font-weight:normal;font-stretch:normal;font-size:1.52041936px;font-family:'Font Awesome 5 Free';-inkscape-font-specification:'Font Awesome 5 Free';fill:#ffffff;fill-opacity:1;stroke-width:0.13663594">TD</tspan></text>
    </g>
  </g>
</svg>
